<svg xmlns="http://www.w3.org/2000/svg" xmlns:xlink="http://www.w3.org/1999/xlink" width="500" zoomAndPan="magnify" viewBox="0 0 375 374.999991" height="500" preserveAspectRatio="xMidYMid meet" version="1.2"><defs><clipPath id="897d4b47dc"><path d="M 222.203125 122.921875 L 259.835938 122.921875 L 259.835938 199.769531 L 222.203125 199.769531 Z M 222.203125 122.921875 "/></clipPath><clipPath id="78c232096d"><path d="M 115.085938 157 L 121 157 L 121 161 L 115.085938 161 Z M 115.085938 157 "/></clipPath></defs><g id="535599e777"><path style=" stroke:none;fill-rule:nonzero;fill:#19747e;fill-opacity:1;" d="M 228.921875 186.003906 L 133.253906 186.003906 C 132.46875 186.003906 131.835938 185.367188 131.835938 184.585938 C 131.835938 183.800781 132.46875 183.164062 133.253906 183.164062 L 227.503906 183.164062 L 227.503906 139.527344 L 134.671875 139.527344 L 134.671875 159.167969 C 134.671875 159.949219 134.039062 160.585938 133.253906 160.585938 C 132.46875 160.585938 131.835938 159.949219 131.835938 159.167969 L 131.835938 138.105469 C 131.835938 137.320312 132.46875 136.6875 133.253906 136.6875 L 228.921875 136.6875 C 229.707031 136.6875 230.34375 137.320312 230.34375 138.105469 L 230.34375 184.585938 C 230.34375 185.367188 229.707031 186.003906 228.921875 186.003906 "/><path style=" stroke:none;fill-rule:nonzero;fill:#19747e;fill-opacity:1;" d="M 133.253906 180.71875 C 132.46875 180.71875 131.835938 180.085938 131.835938 179.300781 L 131.835938 163.957031 C 131.835938 163.171875 132.46875 162.539062 133.253906 162.539062 C 134.039062 162.539062 134.671875 163.171875 134.671875 163.957031 L 134.671875 179.300781 C 134.671875 180.085938 134.039062 180.71875 133.253906 180.71875 "/><path style=" stroke:none;fill-rule:nonzero;fill:#19747e;fill-opacity:1;" d="M 181.089844 145.335938 C 173.273438 145.335938 166.917969 152.515625 166.917969 161.34375 C 166.917969 170.171875 173.273438 177.355469 181.089844 177.355469 C 188.902344 177.355469 195.257812 170.171875 195.257812 161.34375 C 195.257812 152.515625 188.902344 145.335938 181.089844 145.335938 Z M 181.089844 180.195312 C 171.710938 180.195312 164.078125 171.738281 164.078125 161.34375 C 164.078125 150.953125 171.710938 142.496094 181.089844 142.496094 C 190.46875 142.496094 198.097656 150.953125 198.097656 161.34375 C 198.097656 171.738281 190.46875 180.195312 181.089844 180.195312 "/><path style=" stroke:none;fill-rule:nonzero;fill:#19747e;fill-opacity:1;" d="M 171.664062 160.871094 C 171.597656 160.871094 171.53125 160.863281 171.464844 160.855469 C 170.6875 160.746094 170.148438 160.03125 170.257812 159.25 C 170.949219 154.34375 174.050781 150.316406 178.15625 148.992188 C 178.898438 148.75 179.699219 149.160156 179.941406 149.90625 C 180.183594 150.652344 179.773438 151.449219 179.027344 151.691406 C 175.945312 152.6875 173.609375 155.808594 173.066406 159.648438 C 172.96875 160.355469 172.359375 160.871094 171.664062 160.871094 "/><path style=" stroke:none;fill-rule:nonzero;fill:#19747e;fill-opacity:1;" d="M 152.316406 157.484375 C 150.679688 157.484375 149.351562 159.21875 149.351562 161.34375 C 149.351562 163.472656 150.679688 165.203125 152.316406 165.203125 C 153.949219 165.203125 155.28125 163.472656 155.28125 161.34375 C 155.28125 159.21875 153.949219 157.484375 152.316406 157.484375 Z M 152.316406 168.042969 C 149.113281 168.042969 146.511719 165.039062 146.511719 161.34375 C 146.511719 157.652344 149.113281 154.648438 152.316406 154.648438 C 155.515625 154.648438 158.117188 157.652344 158.117188 161.34375 C 158.117188 165.039062 155.515625 168.042969 152.316406 168.042969 "/><path style=" stroke:none;fill-rule:nonzero;fill:#19747e;fill-opacity:1;" d="M 209.863281 157.484375 C 208.226562 157.484375 206.894531 159.21875 206.894531 161.34375 C 206.894531 163.472656 208.226562 165.203125 209.863281 165.203125 C 211.496094 165.203125 212.824219 163.472656 212.824219 161.34375 C 212.824219 159.21875 211.496094 157.484375 209.863281 157.484375 Z M 209.863281 168.042969 C 206.660156 168.042969 204.058594 165.039062 204.058594 161.34375 C 204.058594 157.652344 206.660156 154.648438 209.863281 154.648438 C 213.0625 154.648438 215.667969 157.652344 215.667969 161.34375 C 215.667969 165.039062 213.0625 168.042969 209.863281 168.042969 "/><path style=" stroke:none;fill-rule:nonzero;fill:#19747e;fill-opacity:1;" d="M 157.445312 174.773438 L 147.183594 174.773438 C 146.398438 174.773438 145.761719 174.136719 145.761719 173.351562 C 145.761719 172.570312 146.398438 171.933594 147.183594 171.933594 L 157.445312 171.933594 C 158.230469 171.933594 158.867188 172.570312 158.867188 173.351562 C 158.867188 174.136719 158.230469 174.773438 157.445312 174.773438 "/><path style=" stroke:none;fill-rule:nonzero;fill:#19747e;fill-opacity:1;" d="M 214.992188 150.757812 L 204.730469 150.757812 C 203.945312 150.757812 203.308594 150.121094 203.308594 149.339844 C 203.308594 148.554688 203.945312 147.917969 204.730469 147.917969 L 214.992188 147.917969 C 215.777344 147.917969 216.414062 148.554688 216.414062 149.339844 C 216.414062 150.121094 215.777344 150.757812 214.992188 150.757812 "/><path style=" stroke:none;fill-rule:nonzero;fill:#19747e;fill-opacity:1;" d="M 168.886719 180.195312 L 143.855469 180.195312 C 143.070312 180.195312 142.4375 179.558594 142.4375 178.773438 C 142.4375 176.914062 140.921875 175.402344 139.0625 175.402344 C 138.28125 175.402344 137.644531 174.765625 137.644531 173.980469 L 137.644531 164.136719 C 137.644531 163.351562 138.28125 162.714844 139.0625 162.714844 C 139.847656 162.714844 140.484375 163.351562 140.484375 164.136719 L 140.484375 172.726562 C 142.769531 173.265625 144.574219 175.070312 145.109375 177.355469 L 168.886719 177.355469 C 169.671875 177.355469 170.308594 177.992188 170.308594 178.773438 C 170.308594 179.558594 169.671875 180.195312 168.886719 180.195312 "/><path style=" stroke:none;fill-rule:nonzero;fill:#19747e;fill-opacity:1;" d="M 139.0625 160.585938 C 138.28125 160.585938 137.644531 159.949219 137.644531 159.167969 L 137.644531 148.707031 C 137.644531 147.921875 138.28125 147.289062 139.0625 147.289062 C 140.921875 147.289062 142.4375 145.773438 142.4375 143.914062 C 142.4375 143.132812 143.070312 142.496094 143.855469 142.496094 L 181.089844 142.496094 C 181.871094 142.496094 182.507812 143.132812 182.507812 143.914062 C 182.507812 144.699219 181.871094 145.335938 181.089844 145.335938 L 145.109375 145.335938 C 144.574219 147.621094 142.769531 149.425781 140.484375 149.960938 L 140.484375 159.167969 C 140.484375 159.949219 139.847656 160.585938 139.0625 160.585938 "/><path style=" stroke:none;fill-rule:nonzero;fill:#19747e;fill-opacity:1;" d="M 218.320312 180.195312 L 181.089844 180.195312 C 180.304688 180.195312 179.667969 179.558594 179.667969 178.773438 C 179.667969 177.992188 180.304688 177.355469 181.089844 177.355469 L 217.066406 177.355469 C 217.601562 175.070312 219.40625 173.265625 221.691406 172.726562 L 221.691406 149.960938 C 219.40625 149.425781 217.601562 147.621094 217.066406 145.335938 L 193.289062 145.335938 C 192.503906 145.335938 191.871094 144.699219 191.871094 143.914062 C 191.871094 143.132812 192.503906 142.496094 193.289062 142.496094 L 218.320312 142.496094 C 219.105469 142.496094 219.742188 143.132812 219.742188 143.914062 C 219.742188 145.773438 221.253906 147.289062 223.113281 147.289062 C 223.894531 147.289062 224.53125 147.921875 224.53125 148.707031 L 224.53125 173.980469 C 224.53125 174.765625 223.894531 175.402344 223.113281 175.402344 C 221.253906 175.402344 219.742188 176.914062 219.742188 178.773438 C 219.742188 179.558594 219.105469 180.195312 218.320312 180.195312 "/><g clip-rule="nonzero" clip-path="url(#897d4b47dc)"><path style=" stroke:none;fill-rule:nonzero;fill:#19747e;fill-opacity:1;" d="M 223.839844 199.769531 C 223.492188 199.769531 223.144531 199.644531 222.875 199.386719 C 222.300781 198.851562 222.269531 197.953125 222.804688 197.382812 L 256.476562 161.34375 L 222.804688 125.308594 C 222.269531 124.734375 222.300781 123.839844 222.875 123.304688 C 223.445312 122.765625 224.34375 122.796875 224.878906 123.371094 L 259.457031 160.375 C 259.964844 160.917969 259.964844 161.769531 259.457031 162.3125 L 224.878906 199.320312 C 224.597656 199.617188 224.21875 199.769531 223.839844 199.769531 "/></g><path style=" stroke:none;fill-rule:nonzero;fill:#19747e;fill-opacity:1;" d="M 237.472656 176.347656 C 237.125 176.347656 236.773438 176.222656 236.503906 175.96875 C 235.929688 175.429688 235.898438 174.535156 236.433594 173.960938 L 248.222656 161.34375 L 240.027344 152.574219 C 239.492188 152.003906 239.519531 151.105469 240.09375 150.570312 C 240.664062 150.035156 241.5625 150.0625 242.101562 150.636719 L 251.199219 160.375 C 251.710938 160.917969 251.710938 161.769531 251.199219 162.3125 L 238.507812 175.898438 C 238.226562 176.195312 237.847656 176.347656 237.472656 176.347656 "/><path style=" stroke:none;fill-rule:nonzero;fill:#19747e;fill-opacity:1;" d="M 218.328125 130.964844 L 189.945312 130.964844 C 189.160156 130.964844 188.527344 130.328125 188.527344 129.542969 C 188.527344 128.757812 189.160156 128.125 189.945312 128.125 L 218.328125 128.125 C 219.109375 128.125 219.746094 128.757812 219.746094 129.542969 C 219.746094 130.328125 219.109375 130.964844 218.328125 130.964844 "/><path style=" stroke:none;fill-rule:nonzero;fill:#19747e;fill-opacity:1;" d="M 179.300781 130.964844 L 170.433594 130.964844 C 169.648438 130.964844 169.015625 130.328125 169.015625 129.542969 C 169.015625 128.757812 169.648438 128.125 170.433594 128.125 L 179.300781 128.125 C 180.085938 128.125 180.722656 128.757812 180.722656 129.542969 C 180.722656 130.328125 180.085938 130.964844 179.300781 130.964844 "/><path style=" stroke:none;fill-rule:nonzero;fill:#19747e;fill-opacity:1;" d="M 209.863281 194.566406 L 165.496094 194.566406 C 164.714844 194.566406 164.078125 193.929688 164.078125 193.148438 C 164.078125 192.363281 164.714844 191.726562 165.496094 191.726562 L 209.863281 191.726562 C 210.644531 191.726562 211.28125 192.363281 211.28125 193.148438 C 211.28125 193.929688 210.644531 194.566406 209.863281 194.566406 "/><path style=" stroke:none;fill-rule:nonzero;fill:#19747e;fill-opacity:1;" d="M 158.191406 194.566406 L 152.886719 194.566406 C 152.105469 194.566406 151.46875 193.929688 151.46875 193.148438 C 151.46875 192.363281 152.105469 191.726562 152.886719 191.726562 L 158.191406 191.726562 C 158.976562 191.726562 159.613281 192.363281 159.613281 193.148438 C 159.613281 193.929688 158.976562 194.566406 158.191406 194.566406 "/><path style=" stroke:none;fill-rule:nonzero;fill:#19747e;fill-opacity:1;" d="M 135.132812 180.71875 L 120.230469 180.71875 C 119.449219 180.71875 118.8125 180.085938 118.8125 179.300781 C 118.8125 178.515625 119.449219 177.882812 120.230469 177.882812 L 135.132812 177.882812 C 135.917969 177.882812 136.550781 178.515625 136.550781 179.300781 C 136.550781 180.085938 135.917969 180.71875 135.132812 180.71875 "/><path style=" stroke:none;fill-rule:nonzero;fill:#19747e;fill-opacity:1;" d="M 141.398438 160.585938 L 124.667969 160.585938 C 123.882812 160.585938 123.246094 159.949219 123.246094 159.167969 C 123.246094 158.382812 123.882812 157.746094 124.667969 157.746094 L 141.398438 157.746094 C 142.183594 157.746094 142.820312 158.382812 142.820312 159.167969 C 142.820312 159.949219 142.183594 160.585938 141.398438 160.585938 "/><g clip-rule="nonzero" clip-path="url(#78c232096d)"><path style=" stroke:none;fill-rule:nonzero;fill:#19747e;fill-opacity:1;" d="M 119.582031 160.585938 L 116.507812 160.585938 C 115.722656 160.585938 115.085938 159.949219 115.085938 159.167969 C 115.085938 158.382812 115.722656 157.746094 116.507812 157.746094 L 119.582031 157.746094 C 120.363281 157.746094 121 158.382812 121 159.167969 C 121 159.949219 120.363281 160.585938 119.582031 160.585938 "/></g><g style="fill:#19747e;fill-opacity:1;"><g transform="translate(128.986029, 228.120703)"><path style="stroke:none" d="M 12.484375 -16.875 L 12.484375 -13.59375 L 5.609375 -13.59375 L 5.609375 -10.03125 L 10.75 -10.03125 L 10.75 -6.828125 L 5.609375 -6.828125 L 5.609375 0 L 1.484375 0 L 1.484375 -16.875 Z M 12.484375 -16.875 "/></g></g><g style="fill:#19747e;fill-opacity:1;"><g transform="translate(143.029817, 228.120703)"><path style="stroke:none" d="M 5.609375 -3.171875 L 10.984375 -3.171875 L 10.984375 0 L 1.484375 0 L 1.484375 -16.875 L 5.609375 -16.875 Z M 5.609375 -3.171875 "/></g></g><g style="fill:#19747e;fill-opacity:1;"><g transform="translate(155.390317, 228.120703)"><path style="stroke:none" d="M 5.609375 -13.59375 L 5.609375 -10.171875 L 11.109375 -10.171875 L 11.109375 -7 L 5.609375 -7 L 5.609375 -3.296875 L 11.828125 -3.296875 L 11.828125 0 L 1.484375 0 L 1.484375 -16.875 L 11.828125 -16.875 L 11.828125 -13.59375 Z M 5.609375 -13.59375 "/></g></g><g style="fill:#19747e;fill-opacity:1;"><g transform="translate(169.289817, 228.120703)"><path style="stroke:none" d="M 11.828125 0 L 8.390625 -5.171875 L 5.359375 0 L 0.703125 0 L 6.109375 -8.578125 L 0.578125 -16.875 L 5.359375 -16.875 L 8.75 -11.78125 L 11.734375 -16.875 L 16.40625 -16.875 L 11.03125 -8.375 L 16.609375 0 Z M 11.828125 0 "/></g></g><g style="fill:#19747e;fill-opacity:1;"><g transform="translate(187.373484, 228.120703)"><path style="stroke:none" d="M 5.609375 -16.875 L 5.609375 0 L 1.484375 0 L 1.484375 -16.875 Z M 5.609375 -16.875 "/></g></g><g style="fill:#19747e;fill-opacity:1;"><g transform="translate(195.357454, 228.120703)"><path style="stroke:none" d="M 14.359375 -11.453125 C 14.359375 -10.472656 14.132812 -9.578125 13.6875 -8.765625 C 13.238281 -7.953125 12.546875 -7.296875 11.609375 -6.796875 C 10.679688 -6.304688 9.53125 -6.0625 8.15625 -6.0625 L 5.609375 -6.0625 L 5.609375 0 L 1.484375 0 L 1.484375 -16.875 L 8.15625 -16.875 C 9.5 -16.875 10.632812 -16.640625 11.5625 -16.171875 C 12.5 -15.710938 13.195312 -15.070312 13.65625 -14.25 C 14.125 -13.4375 14.359375 -12.503906 14.359375 -11.453125 Z M 7.84375 -9.328125 C 8.625 -9.328125 9.207031 -9.507812 9.59375 -9.875 C 9.976562 -10.25 10.171875 -10.773438 10.171875 -11.453125 C 10.171875 -12.117188 9.976562 -12.632812 9.59375 -13 C 9.207031 -13.375 8.625 -13.5625 7.84375 -13.5625 L 5.609375 -13.5625 L 5.609375 -9.328125 Z M 7.84375 -9.328125 "/></g></g><g style="fill:#19747e;fill-opacity:1;"><g transform="translate(211.25285, 228.120703)"><path style="stroke:none" d="M 12 -2.984375 L 5.703125 -2.984375 L 4.6875 0 L 0.390625 0 L 6.5 -16.875 L 11.25 -16.875 L 17.359375 0 L 13.015625 0 Z M 10.9375 -6.15625 L 8.84375 -12.34375 L 6.78125 -6.15625 Z M 10.9375 -6.15625 "/></g></g><g style="fill:#19747e;fill-opacity:1;"><g transform="translate(229.865543, 228.120703)"><path style="stroke:none" d="M 15.96875 -16.875 L 10.125 -5.578125 L 10.125 0 L 6.015625 0 L 6.015625 -5.578125 L 0.171875 -16.875 L 4.828125 -16.875 L 8.109375 -9.8125 L 11.34375 -16.875 Z M 15.96875 -16.875 "/></g></g></g></svg>